<svg width="16" height="16" viewBox="0 0 16 16" fill="none" xmlns="http://www.w3.org/2000/svg">
<path d="M1.33334 4.00008C1.33334 3.64646 1.47382 3.30732 1.72387 3.05727C1.97392 2.80722 2.31305 2.66675 2.66668 2.66675H13.3333C13.687 2.66675 14.0261 2.80722 14.2762 3.05727C14.5262 3.30732 14.6667 3.64646 14.6667 4.00008V12.0001C14.6667 12.3537 14.5262 12.6928 14.2762 12.9429C14.0261 13.1929 13.687 13.3334 13.3333 13.3334H2.66668C2.31305 13.3334 1.97392 13.1929 1.72387 12.9429C1.47382 12.6928 1.33334 12.3537 1.33334 12.0001V4.00008Z" stroke="white" stroke-width="2" stroke-linecap="round" stroke-linejoin="round"/>
<path d="M1.33334 5.3335L6.33401 9.33416C6.80687 9.7125 7.39442 9.91863 8.00001 9.91863C8.6056 9.91863 9.19315 9.7125 9.66601 9.33416L14.6667 5.3335" stroke="white" stroke-width="2" stroke-linejoin="round"/>
</svg>
