<svg width="16" height="16" viewBox="0 0 16 16" fill="none" xmlns="http://www.w3.org/2000/svg">
<path fill-rule="evenodd" clip-rule="evenodd" d="M4.97666 0.710748C5.75866 0.674748 6.00799 0.666748 7.99999 0.666748C9.99199 0.666748 10.2413 0.675415 11.0227 0.710748C11.804 0.746081 12.3373 0.870748 12.804 1.05141C13.2927 1.23608 13.736 1.52475 14.1027 1.89808C14.476 2.26408 14.764 2.70675 14.948 3.19608C15.1293 3.66275 15.2533 4.19608 15.2893 4.97608C15.3253 5.75942 15.3333 6.00875 15.3333 8.00008C15.3333 9.99208 15.3247 10.2414 15.2893 11.0234C15.254 11.8034 15.1293 12.3367 14.948 12.8034C14.764 13.2928 14.4755 13.7362 14.1027 14.1027C13.736 14.4761 13.2927 14.7641 12.804 14.9481C12.3373 15.1294 11.804 15.2534 11.024 15.2894C10.2413 15.3254 9.99199 15.3334 7.99999 15.3334C6.00799 15.3334 5.75866 15.3247 4.97666 15.2894C4.19666 15.2541 3.66332 15.1294 3.19666 14.9481C2.70727 14.7641 2.26387 14.4756 1.89732 14.1027C1.52424 13.7365 1.23553 13.2933 1.05132 12.8041C0.870657 12.3374 0.746656 11.8041 0.710656 11.0241C0.674656 10.2407 0.666656 9.99142 0.666656 8.00008C0.666656 6.00808 0.675323 5.75875 0.710656 4.97742C0.74599 4.19608 0.870657 3.66275 1.05132 3.19608C1.23581 2.7068 1.52474 2.26362 1.89799 1.89741C2.26402 1.52442 2.70697 1.23571 3.19599 1.05141C3.66266 0.870748 4.19599 0.746748 4.97599 0.710748H4.97666ZM10.9633 2.03075C10.19 1.99541 9.95799 1.98808 7.99999 1.98808C6.04199 1.98808 5.80999 1.99541 5.03666 2.03075C4.32132 2.06341 3.93332 2.18275 3.67466 2.28341C3.33266 2.41675 3.08799 2.57475 2.83132 2.83141C2.58802 3.06812 2.40078 3.35627 2.28332 3.67475C2.18266 3.93341 2.06332 4.32141 2.03066 5.03675C1.99532 5.81008 1.98799 6.04208 1.98799 8.00008C1.98799 9.95808 1.99532 10.1901 2.03066 10.9634C2.06332 11.6787 2.18266 12.0667 2.28332 12.3254C2.40066 12.6434 2.58799 12.9321 2.83132 13.1687C3.06799 13.4121 3.35666 13.5994 3.67466 13.7167C3.93332 13.8174 4.32132 13.9367 5.03666 13.9694C5.80999 14.0047 6.04132 14.0121 7.99999 14.0121C9.95866 14.0121 10.19 14.0047 10.9633 13.9694C11.6787 13.9367 12.0667 13.8174 12.3253 13.7167C12.6673 13.5834 12.912 13.4254 13.1687 13.1687C13.412 12.9321 13.5993 12.6434 13.7167 12.3254C13.8173 12.0667 13.9367 11.6787 13.9693 10.9634C14.0047 10.1901 14.012 9.95808 14.012 8.00008C14.012 6.04208 14.0047 5.81008 13.9693 5.03675C13.9367 4.32141 13.8173 3.93341 13.7167 3.67475C13.5833 3.33275 13.4253 3.08808 13.1687 2.83141C12.9319 2.58813 12.6438 2.40089 12.3253 2.28341C12.0667 2.18275 11.6787 2.06341 10.9633 2.03075ZM7.06332 10.2607C7.58643 10.4785 8.16891 10.5079 8.71128 10.3439C9.25364 10.1799 9.72225 9.83269 10.0371 9.36158C10.3519 8.89046 10.4934 8.32466 10.4374 7.76082C10.3813 7.19697 10.1313 6.67006 9.72999 6.27008C9.47415 6.0144 9.1648 5.81862 8.82421 5.69685C8.48363 5.57507 8.12028 5.53032 7.76032 5.56583C7.40036 5.60133 7.05276 5.7162 6.74253 5.90217C6.43229 6.08814 6.16715 6.34058 5.96619 6.64132C5.76523 6.94205 5.63345 7.28361 5.58033 7.64139C5.52722 7.99917 5.55409 8.36428 5.65902 8.71043C5.76394 9.05657 5.94431 9.37515 6.18714 9.64323C6.42996 9.9113 6.72921 10.1222 7.06332 10.2607ZM5.33466 5.33475C5.68467 4.98473 6.1002 4.70708 6.55752 4.51766C7.01484 4.32823 7.50499 4.23073 7.99999 4.23073C8.49499 4.23073 8.98514 4.32823 9.44246 4.51766C9.89978 4.70708 10.3153 4.98473 10.6653 5.33475C11.0153 5.68476 11.293 6.1003 11.4824 6.55761C11.6718 7.01493 11.7693 7.50508 11.7693 8.00008C11.7693 8.49508 11.6718 8.98523 11.4824 9.44255C11.293 9.89987 11.0153 10.3154 10.6653 10.6654C9.95843 11.3723 8.99968 11.7694 7.99999 11.7694C7.0003 11.7694 6.04155 11.3723 5.33466 10.6654C4.62777 9.95852 4.23064 8.99978 4.23064 8.00008C4.23064 7.00039 4.62777 6.04164 5.33466 5.33475ZM12.6053 4.79208C12.6921 4.71026 12.7615 4.61187 12.8095 4.50273C12.8576 4.39359 12.8832 4.27593 12.8849 4.1567C12.8867 4.03748 12.8645 3.91911 12.8196 3.80862C12.7748 3.69813 12.7083 3.59776 12.624 3.51344C12.5396 3.42913 12.4393 3.36259 12.3288 3.31776C12.2183 3.27293 12.0999 3.25073 11.9807 3.25247C11.8615 3.25421 11.7438 3.27985 11.6347 3.32788C11.5255 3.37591 11.4271 3.44534 11.3453 3.53208C11.1862 3.70077 11.0991 3.92483 11.1025 4.1567C11.1058 4.38857 11.1995 4.61 11.3634 4.77398C11.5274 4.93795 11.7488 5.03157 11.9807 5.03495C12.2126 5.03833 12.4366 4.95121 12.6053 4.79208Z" fill="white"/>
</svg>
