<svg width="64" height="64" viewBox="0 0 64 64" fill="none" xmlns="http://www.w3.org/2000/svg">
<path d="M33.543 22.531H28.079V31.074H33.543C34.927 31.074 36.003 30.726 36.771 30.031C37.539 29.336 37.922 28.234 37.922 26.724C37.922 25.214 37.538 24.138 36.771 23.495C36.004 22.852 34.927 22.531 33.543 22.531Z" fill="#FBBF24"/>
<path d="M31.999 2C15.431 2 1.99902 15.432 1.99902 32C1.99902 48.568 15.431 62 31.999 62C48.568 62 62 48.568 62 32C62 15.432 48.568 2 31.999 2ZM41.397 33.949C39.698 35.367 37.272 36.074 34.12 36.074H28.079V46.508H22.056V17.492H34.514C37.386 17.492 39.676 18.24 41.384 19.736C43.091 21.232 43.946 23.549 43.946 26.685C43.945 30.109 43.096 32.531 41.397 33.949Z" fill="#FBBF24"/>
</svg>
