<svg width="16" height="16" viewBox="0 0 16 16" fill="none" xmlns="http://www.w3.org/2000/svg">
<path d="M7.03601 4.1601L4.78068 1.55677C4.52068 1.25677 4.04401 1.2581 3.74201 1.56077L1.88735 3.41877C1.33535 3.97143 1.17735 4.7921 1.49668 5.4501C3.40442 9.40008 6.59004 12.5902 10.5373 14.5034C11.1947 14.8228 12.0147 14.6648 12.5667 14.1121L14.4387 12.2368C14.742 11.9334 14.7427 11.4541 14.44 11.1941L11.8267 8.95077C11.5533 8.7161 11.1287 8.74677 10.8547 9.02143L9.94535 9.9321C9.89879 9.98089 9.83751 10.0131 9.77091 10.0237C9.70431 10.0343 9.63608 10.0227 9.57668 9.99077C8.09031 9.13483 6.85734 7.90025 6.00335 6.41277C5.97136 6.35327 5.95978 6.28492 5.97038 6.21821C5.98098 6.15149 6.01317 6.0901 6.06201 6.04343L6.96868 5.1361C7.24335 4.8601 7.27335 4.43343 7.03601 4.15943V4.1601Z" stroke="white" stroke-width="2" stroke-linecap="round" stroke-linejoin="round"/>
</svg>
